<svg xmlns="http://www.w3.org/2000/svg" fill="none" viewBox="51.7 1.553398058252427 328.812 151.19741100323625" width="328.812" height="151.19741100323625">
<path fill="#1A1A1A" d="M86.584 80.848H98.968C101.56 80.848 103.504 80.272 104.8 79.12C106.096 77.968 106.744 76.096 106.744 73.504C106.744 71.008 106.096 69.208 104.8 68.104C103.504 66.952 101.56 66.376 98.968 66.376H86.584V80.848ZM75.28 57.592H103C105.304 57.592 107.368 57.976 109.192 58.744C111.064 59.464 112.648 60.472 113.944 61.768C115.288 63.064 116.296 64.576 116.968 66.304C117.688 67.984 118.048 69.808 118.048 71.776C118.048 74.8 117.4 77.416 116.104 79.624C114.856 81.832 112.792 83.512 109.912 84.664V84.808C111.304 85.192 112.456 85.792 113.368 86.608C114.28 87.376 115.024 88.312 115.6 89.416C116.176 90.472 116.584 91.648 116.824 92.944C117.112 94.24 117.304 95.536 117.4 96.832C117.448 97.648 117.496 98.608 117.544 99.712C117.592 100.816 117.664 101.944 117.76 103.096C117.904 104.248 118.096 105.352 118.336 106.408C118.624 107.416 119.032 108.28 119.56 109H108.256C107.632 107.368 107.248 105.424 107.104 103.168C106.96 100.912 106.744 98.752 106.456 96.688C106.072 94 105.256 92.032 104.008 90.784C102.76 89.536 100.72 88.912 97.888 88.912H86.584V109H75.28V57.592Z"/>
<path fill="#1A1A1A" d="M150.956 86.392C150.476 83.8 149.612 81.832 148.364 80.488C147.164 79.144 145.316 78.472 142.82 78.472C141.188 78.472 139.82 78.76 138.716 79.336C137.66 79.864 136.796 80.536 136.124 81.352C135.5 82.168 135.044 83.032 134.756 83.944C134.516 84.856 134.372 85.672 134.324 86.392H150.956ZM134.324 92.872C134.468 96.184 135.308 98.584 136.844 100.072C138.38 101.56 140.588 102.304 143.468 102.304C145.532 102.304 147.308 101.8 148.796 100.792C150.284 99.736 151.196 98.632 151.532 97.48H160.532C159.092 101.944 156.884 105.136 153.908 107.056C150.932 108.976 147.332 109.936 143.108 109.936C140.18 109.936 137.54 109.48 135.188 108.568C132.836 107.608 130.844 106.264 129.212 104.536C127.58 102.808 126.308 100.744 125.396 98.344C124.532 95.944 124.1 93.304 124.1 90.424C124.1 87.64 124.556 85.048 125.468 82.648C126.38 80.248 127.676 78.184 129.356 76.456C131.036 74.68 133.028 73.288 135.332 72.28C137.684 71.272 140.276 70.768 143.108 70.768C146.276 70.768 149.036 71.392 151.388 72.64C153.74 73.84 155.66 75.472 157.148 77.536C158.684 79.6 159.788 81.952 160.46 84.592C161.132 87.232 161.372 89.992 161.18 92.872H134.324Z"/>
<path fill="#1A1A1A" d="M190.188 102.304C191.868 102.304 193.26 101.968 194.364 101.296C195.516 100.624 196.428 99.76 197.1 98.704C197.82 97.6 198.324 96.328 198.612 94.888C198.9 93.448 199.044 91.984 199.044 90.496C199.044 89.008 198.876 87.544 198.54 86.104C198.252 84.664 197.748 83.392 197.028 82.288C196.308 81.136 195.372 80.224 194.22 79.552C193.116 78.832 191.748 78.472 190.116 78.472C188.436 78.472 187.02 78.832 185.868 79.552C184.764 80.224 183.852 81.112 183.132 82.216C182.46 83.32 181.98 84.592 181.692 86.032C181.404 87.472 181.26 88.96 181.26 90.496C181.26 91.984 181.404 93.448 181.692 94.888C182.028 96.328 182.532 97.6 183.204 98.704C183.924 99.76 184.86 100.624 186.012 101.296C187.164 101.968 188.556 102.304 190.188 102.304ZM171.396 71.776H181.116V76.528H181.26C182.508 74.512 184.092 73.048 186.012 72.136C187.932 71.224 190.044 70.768 192.348 70.768C195.276 70.768 197.796 71.32 199.908 72.424C202.02 73.528 203.772 74.992 205.164 76.816C206.556 78.64 207.588 80.776 208.26 83.224C208.932 85.624 209.268 88.144 209.268 90.784C209.268 93.28 208.932 95.68 208.26 97.984C207.588 100.288 206.556 102.328 205.164 104.104C203.82 105.88 202.116 107.296 200.052 108.352C198.036 109.408 195.66 109.936 192.924 109.936C190.62 109.936 188.484 109.48 186.516 108.568C184.596 107.608 183.012 106.216 181.764 104.392H181.62V122.032H171.396V71.776Z"/>
<path fill="#FF6D00" d="M235.684 94.304C237.364 94.304 238.756 93.968 239.86 93.296C241.012 92.624 241.924 91.76 242.596 90.704C243.316 89.6 243.82 88.328 244.108 86.888C244.396 85.448 244.54 83.984 244.54 82.496C244.54 81.008 244.372 79.544 244.036 78.104C243.748 76.664 243.244 75.392 242.524 74.288C241.804 73.136 240.868 72.224 239.716 71.552C238.612 70.832 237.244 70.472 235.612 70.472C233.932 70.472 232.516 70.832 231.364 71.552C230.26 72.224 229.348 73.112 228.628 74.216C227.956 75.32 227.476 76.592 227.188 78.032C226.9 79.472 226.756 80.96 226.756 82.496C226.756 83.984 226.9 85.448 227.188 86.888C227.524 88.328 228.028 89.6 228.7 90.704C229.42 91.76 230.356 92.624 231.508 93.296C232.66 93.968 234.052 94.304 235.684 94.304ZM216.892 63.776H226.612V68.528H226.756C228.004 66.512 229.588 65.048 231.508 64.136C233.428 63.224 235.54 62.768 237.844 62.768C240.772 62.768 243.292 63.32 245.404 64.424C247.516 65.528 249.268 66.992 250.66 68.816C252.052 70.64 253.084 72.776 253.756 75.224C254.428 77.624 254.764 80.144 254.764 82.784C254.764 85.28 254.428 87.68 253.756 89.984C253.084 92.288 252.052 94.328 250.66 96.104C249.316 97.88 247.612 99.296 245.548 100.352C243.532 101.408 241.156 101.936 238.42 101.936C236.116 101.936 233.98 101.48 232.012 100.568C230.092 99.608 228.508 98.216 227.26 96.392H227.116V114.032H216.892V63.776Z"/>
<path stroke-linecap="round" stroke-width="4" stroke="#FF6D00" d="M230 53L229.548 32"/>
<path stroke-linecap="round" stroke-width="5" stroke="#FF6D00" d="M181.984 24H277.112"/>
<path fill="#FF6D00" d="M181.984 12H171.644C169.36 12 167.508 13.7909 167.508 16V32C167.508 34.2091 169.36 36 171.644 36H181.984C184.269 36 186.12 34.2091 186.12 32V16C186.12 13.7909 184.269 12 181.984 12Z"/>
<path fill="#FF6D00" d="M287.452 12H277.112C274.828 12 272.976 13.7909 272.976 16V32C272.976 34.2091 274.828 36 277.112 36H287.452C289.736 36 291.588 34.2091 291.588 32V16C291.588 13.7909 289.736 12 287.452 12Z"/>
<path fill="#1A1A1A" d="M312.27 89.56C312.27 96.52 310.326 101.704 306.438 105.112C302.55 108.472 297.174 110.152 290.31 110.152C283.35 110.152 277.95 108.472 274.11 105.112C270.318 101.752 268.422 96.568 268.422 89.56V57.592H279.726V89.56C279.726 90.952 279.846 92.32 280.086 93.664C280.326 95.008 280.83 96.208 281.598 97.264C282.366 98.272 283.422 99.112 284.766 99.784C286.158 100.408 288.006 100.72 290.31 100.72C294.342 100.72 297.126 99.832 298.662 98.056C300.198 96.232 300.966 93.4 300.966 89.56V57.592H312.27V89.56Z"/>
<path fill="#1A1A1A" d="M341.152 102.304C342.832 102.304 344.224 101.968 345.328 101.296C346.48 100.624 347.392 99.76 348.064 98.704C348.784 97.6 349.288 96.328 349.576 94.888C349.864 93.448 350.008 91.984 350.008 90.496C350.008 89.008 349.84 87.544 349.504 86.104C349.216 84.664 348.712 83.392 347.992 82.288C347.272 81.136 346.336 80.224 345.184 79.552C344.08 78.832 342.712 78.472 341.08 78.472C339.4 78.472 337.984 78.832 336.832 79.552C335.728 80.224 334.816 81.112 334.096 82.216C333.424 83.32 332.944 84.592 332.656 86.032C332.368 87.472 332.224 88.96 332.224 90.496C332.224 91.984 332.368 93.448 332.656 94.888C332.992 96.328 333.496 97.6 334.168 98.704C334.888 99.76 335.824 100.624 336.976 101.296C338.128 101.968 339.52 102.304 341.152 102.304ZM322.36 71.776H332.08V76.528H332.224C333.472 74.512 335.056 73.048 336.976 72.136C338.896 71.224 341.008 70.768 343.312 70.768C346.24 70.768 348.76 71.32 350.872 72.424C352.984 73.528 354.736 74.992 356.128 76.816C357.52 78.64 358.552 80.776 359.224 83.224C359.896 85.624 360.232 88.144 360.232 90.784C360.232 93.28 359.896 95.68 359.224 97.984C358.552 100.288 357.52 102.328 356.128 104.104C354.784 105.88 353.08 107.296 351.016 108.352C349 109.408 346.624 109.936 343.888 109.936C341.584 109.936 339.448 109.48 337.48 108.568C335.56 107.608 333.976 106.216 332.728 104.392H332.584V122.032H322.36V71.776Z"/>
<path fill="#999999" d="M72.734 136.302H75.394C76.15 136.302 76.6913 136.171 77.018 135.91C77.354 135.639 77.522 135.238 77.522 134.706C77.522 134.351 77.466 134.071 77.354 133.866C77.242 133.661 77.088 133.502 76.892 133.39C76.696 133.278 76.4673 133.208 76.206 133.18C75.954 133.143 75.6833 133.124 75.394 133.124H72.734V136.302ZM71.404 132.004H75.03C75.2447 132.004 75.4733 132.009 75.716 132.018C75.968 132.018 76.2153 132.032 76.458 132.06C76.7007 132.079 76.9247 132.111 77.13 132.158C77.3447 132.205 77.5267 132.275 77.676 132.368C78.0027 132.564 78.278 132.835 78.502 133.18C78.7353 133.525 78.852 133.95 78.852 134.454C78.852 134.986 78.7213 135.448 78.46 135.84C78.208 136.223 77.844 136.507 77.368 136.694V136.722C77.984 136.853 78.4553 137.133 78.782 137.562C79.1087 137.991 79.272 138.514 79.272 139.13C79.272 139.494 79.2067 139.849 79.076 140.194C78.9453 140.539 78.7493 140.847 78.488 141.118C78.236 141.379 77.9187 141.594 77.536 141.762C77.1627 141.921 76.7287 142 76.234 142H71.404V132.004ZM72.734 140.88H76.066C76.654 140.88 77.1113 140.721 77.438 140.404C77.774 140.087 77.942 139.648 77.942 139.088C77.942 138.761 77.8813 138.491 77.76 138.276C77.6387 138.061 77.4753 137.893 77.27 137.772C77.074 137.641 76.8453 137.553 76.584 137.506C76.3227 137.45 76.052 137.422 75.772 137.422H72.734V140.88ZM88.968 138.388C88.968 139.667 88.6273 140.628 87.946 141.272C87.2647 141.907 86.294 142.224 85.034 142.224C83.746 142.224 82.738 141.921 82.01 141.314C81.2913 140.698 80.932 139.723 80.932 138.388V132.004H82.262V138.388C82.262 139.284 82.5 139.965 82.976 140.432C83.452 140.889 84.138 141.118 85.034 141.118C85.8833 141.118 86.5273 140.889 86.966 140.432C87.414 139.965 87.638 139.284 87.638 138.388V132.004H88.968V138.388ZM91.1475 132.004H92.4775V142H91.1475V132.004ZM94.7146 132.004H96.0446V140.88H101.337V142H94.7146V132.004ZM103.824 140.88H106.036C106.185 140.88 106.372 140.871 106.596 140.852C106.82 140.824 107.058 140.768 107.31 140.684C107.562 140.591 107.809 140.46 108.052 140.292C108.304 140.124 108.528 139.895 108.724 139.606C108.92 139.317 109.079 138.957 109.2 138.528C109.331 138.089 109.396 137.562 109.396 136.946C109.396 136.349 109.335 135.817 109.214 135.35C109.102 134.874 108.911 134.473 108.64 134.146C108.379 133.81 108.038 133.558 107.618 133.39C107.198 133.213 106.68 133.124 106.064 133.124H103.824V140.88ZM102.494 132.004H105.924C107.464 132.004 108.649 132.396 109.48 133.18C110.311 133.964 110.726 135.159 110.726 136.764C110.726 137.604 110.633 138.351 110.446 139.004C110.259 139.648 109.97 140.194 109.578 140.642C109.186 141.081 108.687 141.417 108.08 141.65C107.473 141.883 106.755 142 105.924 142H102.494V132.004ZM116.304 132.004H117.634V142H116.304V132.004ZM122.139 133.124H118.807V132.004H126.801V133.124H123.469V142H122.139V133.124ZM126.421 140.446H127.975V142H126.421V140.446ZM134.914 137.002C134.914 137.506 134.98 138.005 135.11 138.5C135.241 138.985 135.446 139.424 135.726 139.816C136.006 140.208 136.366 140.525 136.804 140.768C137.243 141.001 137.766 141.118 138.372 141.118C138.979 141.118 139.502 141.001 139.94 140.768C140.379 140.525 140.738 140.208 141.018 139.816C141.298 139.424 141.504 138.985 141.634 138.5C141.765 138.005 141.83 137.506 141.83 137.002C141.83 136.498 141.765 136.003 141.634 135.518C141.504 135.023 141.298 134.58 141.018 134.188C140.738 133.796 140.379 133.483 139.94 133.25C139.502 133.007 138.979 132.886 138.372 132.886C137.766 132.886 137.243 133.007 136.804 133.25C136.366 133.483 136.006 133.796 135.726 134.188C135.446 134.58 135.241 135.023 135.11 135.518C134.98 136.003 134.914 136.498 134.914 137.002ZM133.584 137.002C133.584 136.321 133.682 135.667 133.878 135.042C134.084 134.407 134.387 133.847 134.788 133.362C135.19 132.877 135.689 132.489 136.286 132.2C136.884 131.911 137.579 131.766 138.372 131.766C139.166 131.766 139.861 131.911 140.458 132.2C141.056 132.489 141.555 132.877 141.956 133.362C142.358 133.847 142.656 134.407 142.852 135.042C143.058 135.667 143.16 136.321 143.16 137.002C143.16 137.683 143.058 138.341 142.852 138.976C142.656 139.601 142.358 140.157 141.956 140.642C141.555 141.127 141.056 141.515 140.458 141.804C139.861 142.084 139.166 142.224 138.372 142.224C137.579 142.224 136.884 142.084 136.286 141.804C135.689 141.515 135.19 141.127 134.788 140.642C134.387 140.157 134.084 139.601 133.878 138.976C133.682 138.341 133.584 137.683 133.584 137.002ZM153.811 142H152.425L150.143 133.6H150.115L147.805 142H146.419L143.857 132.004H145.215L147.175 140.32H147.203L149.443 132.004H150.885L153.097 140.32H153.125L155.155 132.004H156.485L153.811 142ZM157.728 132.004H159.142L164.406 140.11H164.434V132.004H165.694V142H164.238L159.016 133.978H158.988V142H157.728V132.004ZM171.798 132.004H173.128V142H171.798V132.004ZM177.633 133.124H174.301V132.004H182.295V133.124H178.963V142H177.633V133.124ZM181.915 140.446H183.469V142H181.915V140.446ZM189.638 132.004H194.342C195.294 132.004 196.036 132.237 196.568 132.704C197.11 133.171 197.38 133.81 197.38 134.622C197.38 135.229 197.24 135.761 196.96 136.218C196.69 136.675 196.251 136.988 195.644 137.156V137.184C195.934 137.24 196.167 137.333 196.344 137.464C196.531 137.595 196.676 137.753 196.778 137.94C196.89 138.117 196.97 138.318 197.016 138.542C197.072 138.766 197.114 138.999 197.142 139.242C197.161 139.485 197.175 139.732 197.184 139.984C197.194 140.236 197.217 140.483 197.254 140.726C197.292 140.969 197.343 141.202 197.408 141.426C197.483 141.641 197.59 141.832 197.73 142H196.246C196.153 141.897 196.088 141.757 196.05 141.58C196.022 141.403 196.004 141.207 195.994 140.992C195.985 140.768 195.976 140.53 195.966 140.278C195.957 140.026 195.929 139.779 195.882 139.536C195.845 139.293 195.798 139.065 195.742 138.85C195.686 138.626 195.598 138.435 195.476 138.276C195.355 138.108 195.196 137.977 195 137.884C194.804 137.781 194.543 137.73 194.216 137.73H190.968V142H189.638V132.004ZM193.74 136.61C194.048 136.61 194.342 136.587 194.622 136.54C194.902 136.493 195.145 136.405 195.35 136.274C195.565 136.134 195.733 135.952 195.854 135.728C195.985 135.495 196.05 135.196 196.05 134.832C196.05 134.328 195.91 133.917 195.63 133.6C195.35 133.283 194.898 133.124 194.272 133.124H190.968V136.61H193.74ZM199.222 132.004H206.124V133.124H200.552V136.302H205.746V137.422H200.552V140.88H206.166V142H199.222V132.004ZM209.111 136.792H211.715C212.471 136.801 213.022 136.647 213.367 136.33C213.722 136.013 213.899 135.555 213.899 134.958C213.899 134.361 213.722 133.908 213.367 133.6C213.022 133.283 212.471 133.124 211.715 133.124H209.111V136.792ZM207.781 132.004H212.163C213.171 132.004 213.932 132.265 214.445 132.788C214.968 133.301 215.229 134.025 215.229 134.958C215.229 135.891 214.968 136.619 214.445 137.142C213.932 137.665 213.171 137.921 212.163 137.912H209.111V142H207.781V132.004ZM218.189 136.792H220.793C221.549 136.801 222.1 136.647 222.445 136.33C222.8 136.013 222.977 135.555 222.977 134.958C222.977 134.361 222.8 133.908 222.445 133.6C222.1 133.283 221.549 133.124 220.793 133.124H218.189V136.792ZM216.859 132.004H221.241C222.249 132.004 223.01 132.265 223.523 132.788C224.046 133.301 224.307 134.025 224.307 134.958C224.307 135.891 224.046 136.619 223.523 137.142C223.01 137.665 222.249 137.921 221.241 137.912H218.189V142H216.859V132.004ZM229.89 132.004H231.22V142H229.89V132.004ZM235.725 133.124H232.393V132.004H240.387V133.124H237.055V142H235.725V133.124ZM240.007 140.446H241.561V142H240.007V140.446Z"/>
</svg>